<?xml version="1.0" standalone="no"?>
<!DOCTYPE svg PUBLIC "-//W3C//DTD SVG 20010904//EN"
 "http://www.w3.org/TR/2001/REC-SVG-20010904/DTD/svg10.dtd">
<svg version="1.0" xmlns="http://www.w3.org/2000/svg"
 width="1375.000000pt" height="282.000000pt" viewBox="0 0 1375.000000 282.000000"
 preserveAspectRatio="xMidYMid meet">

<g transform="translate(0.000000,282.000000) scale(0.100000,-0.100000)"
fill="#000000" stroke="none">
<path d="M710 2496 c-190 -42 -360 -148 -470 -294 -65 -85 -124 -206 -151
-308 -29 -110 -29 -288 0 -399 76 -285 280 -499 561 -587 108 -33 318 -33 434
0 162 47 347 170 394 262 27 54 28 118 3 168 -36 70 -87 102 -166 102 -59 0
-86 -12 -153 -66 -152 -124 -320 -146 -485 -63 -317 161 -312 619 8 770 167
79 342 55 485 -67 64 -54 86 -64 146 -64 109 0 184 76 184 186 0 65 -20 102
-89 166 -106 99 -230 162 -381 194 -79 17 -245 16 -320 0z"/>
<path d="M6048 2490 c-20 -11 -50 -36 -65 -57 l-28 -36 -3 -666 c-2 -366 0
-680 3 -698 13 -70 98 -133 180 -133 73 0 133 37 166 102 17 33 19 61 19 256
0 245 8 292 63 363 17 23 52 53 77 67 86 45 196 8 239 -81 20 -41 21 -61 24
-308 2 -288 3 -294 64 -351 54 -51 143 -64 211 -29 95 49 102 75 102 395 0
352 -14 426 -108 570 -82 124 -206 194 -363 203 -105 7 -169 -7 -245 -53 -31
-19 -58 -34 -60 -34 -2 0 -4 81 -4 180 0 188 -7 228 -48 273 -50 56 -155 73
-224 37z"/>
<path d="M7990 2496 c-190 -42 -360 -148 -470 -294 -65 -85 -124 -206 -151
-308 -29 -110 -29 -288 0 -399 76 -285 280 -499 561 -587 108 -33 318 -33 434
0 162 47 347 170 394 262 27 54 28 118 3 168 -36 70 -87 102 -166 102 -59 0
-86 -12 -153 -66 -152 -124 -320 -146 -485 -63 -317 161 -312 619 8 770 167
79 342 55 485 -67 64 -54 86 -64 146 -64 109 0 184 76 184 186 0 65 -20 102
-89 166 -106 99 -230 162 -381 194 -79 17 -245 16 -320 0z"/>
<path d="M2180 2074 c-206 -53 -374 -219 -436 -429 -24 -81 -24 -229 0 -310
63 -212 232 -377 441 -430 190 -48 405 10 552 149 76 71 123 143 161 244 23
59 26 82 26 192 0 110 -3 133 -26 192 -38 101 -85 173 -161 244 -76 72 -175
127 -269 149 -79 18 -216 18 -288 -1z m258 -396 c24 -13 58 -43 76 -66 28 -40
31 -50 31 -122 0 -72 -3 -82 -31 -122 -103 -142 -331 -117 -398 44 -61 146 65
308 229 293 27 -3 69 -15 93 -27z"/>
<path d="M3580 2074 c-206 -53 -374 -219 -436 -429 -24 -81 -24 -229 0 -310
63 -212 232 -377 441 -430 117 -30 266 -16 377 36 l47 22 31 -26 c83 -70 230
-36 279 65 20 43 21 56 21 501 0 493 0 497 -53 546 -28 25 -97 38 -143 27 -16
-4 -42 -23 -60 -41 l-32 -35 -45 25 c-105 59 -303 82 -427 49z m217 -379 c56
-17 118 -70 139 -121 18 -43 18 -125 0 -168 -48 -114 -200 -166 -314 -107
-183 94 -153 341 48 402 39 12 72 10 127 -6z"/>
<path d="M5037 2074 c-156 -37 -317 -162 -389 -299 -55 -106 -72 -174 -72
-290 0 -172 50 -291 174 -415 183 -184 461 -233 700 -124 219 100 291 299 147
408 -79 60 -143 57 -250 -14 -41 -26 -91 -53 -111 -60 -122 -40 -271 64 -283
198 -9 97 84 210 187 227 65 11 115 -3 194 -56 81 -53 131 -69 188 -59 44 8
102 50 129 94 26 43 25 127 -2 183 -41 86 -176 176 -310 208 -79 18 -224 18
-302 -1z"/>
<path d="M9460 2074 c-206 -53 -374 -219 -436 -429 -24 -81 -24 -229 0 -310
63 -212 232 -377 441 -430 117 -30 266 -16 377 36 l47 22 31 -26 c83 -70 230
-36 279 65 20 43 21 56 21 501 0 493 0 497 -53 546 -28 25 -97 38 -143 27 -16
-4 -42 -23 -60 -41 l-32 -35 -45 25 c-105 59 -303 82 -427 49z m217 -379 c56
-17 118 -70 139 -121 8 -18 14 -56 14 -84 0 -65 -18 -108 -66 -154 -112 -109
-308 -69 -368 76 -49 117 20 248 154 289 39 12 72 10 127 -6z"/>
<path d="M10943 2072 c-29 -10 -70 -31 -93 -47 l-41 -28 -32 30 c-44 42 -69
53 -119 53 -53 0 -101 -28 -125 -72 -16 -30 -18 -72 -21 -493 l-3 -460 23 -44
c35 -68 86 -104 156 -109 88 -6 152 32 188 113 5 11 11 151 14 311 l5 291 27
35 c37 48 78 64 127 50 77 -24 75 -17 81 -361 4 -260 8 -311 22 -336 61 -112
207 -139 302 -56 10 9 27 33 37 53 17 34 19 62 19 308 0 205 3 279 14 303 16
40 79 97 107 97 38 0 89 -29 109 -62 19 -31 20 -50 20 -321 0 -269 1 -290 20
-327 52 -102 201 -132 286 -58 70 61 69 57 69 413 -1 356 -7 405 -67 517 -41
78 -131 160 -205 188 -73 28 -195 37 -272 20 -57 -13 -154 -57 -202 -92 l-26
-20 -49 37 c-77 59 -127 77 -229 81 -70 4 -101 1 -142 -14z"/>
<path d="M12885 2076 c-28 -7 -82 -27 -119 -44 l-68 -32 -20 25 c-63 81 -197
71 -245 -17 -17 -31 -18 -80 -21 -688 -2 -455 0 -666 8 -693 6 -20 25 -54 43
-74 97 -111 270 -72 312 71 10 33 15 94 15 181 l0 132 58 -20 c79 -28 226 -34
316 -13 106 25 200 79 287 166 189 188 232 465 107 703 -71 136 -240 266 -389
302 -76 18 -214 18 -284 1z m212 -381 c91 -27 153 -110 153 -205 0 -199 -252
-291 -392 -143 -112 118 -54 303 112 354 39 12 72 10 127 -6z"/>
<path d="M177 634 c-49 -97 -85 -180 -80 -185 14 -14 211 -68 321 -89 290 -54
549 -52 837 5 139 28 315 81 315 95 0 14 -169 350 -176 350 -3 0 -55 -13 -117
-29 -182 -48 -248 -56 -452 -56 -215 0 -348 20 -545 80 -11 4 -38 -41 -103
-171z"/>
</g>
</svg>
