<svg id="Layer_1" data-name="Layer 1" xmlns="http://www.w3.org/2000/svg" viewBox="0 0 133.4 70.07"><defs><style>.cls-1{fill:#592c89;}.cls-2{fill:#784ea0;}.cls-3{fill:#7256a4;}.cls-4{fill:#592c8a;}</style></defs><path class="cls-1" d="M290,449.89a19.62,19.62,0,0,1,2.49-5c4.16-6.41,10.12-10.66,16.88-13.89a82.61,82.61,0,0,1,15.77-5.52,146.36,146.36,0,0,1,14.68-2.87c1.33-.19,2.67-.37,4-.49.71-.07,1.16-.31,1.13-1.25-.34-8.23-.62-16.45-.91-24.68-.06-1.59-.11-3.19-.11-4.79,0-.68-.19-1.08-.91-1.1a52.06,52.06,0,0,0-9.66.3,61,61,0,0,0-10,2.53c-.31.1-.76.4-.93,0s.38-.52.66-.7a37.81,37.81,0,0,1,14-5.27,58.67,58.67,0,0,1,11.31-.76c.95,0,1.37.3,1.41,1.29.17,4.47.4,8.93.61,13.4.39,8.3.77,16.6,1.21,24.9.05,1.06-.22,1.38-1.29,1.34a94.33,94.33,0,0,0-12.91.55c-10.1,1-20,3-29.16,7.53a48.88,48.88,0,0,0-17.38,13.84C290.7,449.54,290.55,449.91,290,449.89Z" transform="translate(-230.76 -386.36)"/><path class="cls-1" d="M342.15,433.39a112.43,112.43,0,0,1,11.46.54c.82,0,1.64.18,2.46.28s.93-.24.89-.93q-.48-9.45-.92-18.91c-.13-2.72-.27-5.43-.3-8.15,0-1.07-.29-1.48-1.43-1.41-1.86.11-1.86,0-2.07-1.77-.25-2.24-.25-2.23,2-2.24,2.08,0,4.16,0,6.23-.08.65,0,.89.11.93.83.3,6.5.64,13,1,19.51q.47,8.67.93,17.34c.15,2.64.15,2.72-2.34,2.17a89,89,0,0,0-9.18-1.33,98.18,98.18,0,0,0-15.61-.74,110.09,110.09,0,0,0-14.9,1.57,98.86,98.86,0,0,0-13.9,3.5,89.3,89.3,0,0,0-13.81,6l-.42.23c-.25.11-.56.34-.74,0s.08-.5.33-.68c1.5-1.11,3-2.26,4.5-3.33a65.66,65.66,0,0,1,17.43-8.49,70.63,70.63,0,0,1,10.25-2.51c3.5-.58,7-.93,10.55-1.2C337.71,433.44,339.93,433.54,342.15,433.39Z" transform="translate(-230.76 -386.36)"/><path class="cls-2" d="M249.91,416.83c0,1.31.09,2.64,0,3.95-.09,1,.43,1.29,1.25,1.39,1.7.21,3.4.39,5.09.65a132.07,132.07,0,0,1,13.61,2.71A101.24,101.24,0,0,1,281,429.06a55.27,55.27,0,0,1,12.87,7c.39.29,1.53.45.87,1.43-1,1.46-1.71,1.69-2.8,1-1.6-1-3.19-1.91-4.87-2.74a68.07,68.07,0,0,0-10.89-4.29,90.39,90.39,0,0,0-13.31-2.86c-3.31-.47-6.64-.7-10-1-2.91-.26-5.81-.2-8.72-.31-.86,0-1.08-.34-1-1.13.22-4.23.39-8.46.6-12.69s.44-8.37.64-12.56.4-8.62.55-12.93c0-1.16.51-1.56,1.66-1.6a53.79,53.79,0,0,1,9.67.54,36.6,36.6,0,0,1,15.48,5.55c.28.18.85.23.61.69s-.67.05-1,0c-2.34-.74-4.69-1.39-7.07-2a43.76,43.76,0,0,0-11.4-.88c-.24,0-.48,0-.72,0-.93-.07-1.26.35-1.28,1.27-.06,2.88-.14,5.75-.28,8.63-.27,5.54-.39,11.1-.58,16.64Z" transform="translate(-230.76 -386.36)"/><path class="cls-2" d="M237.88,429.85c0,1.16.05,2.32,0,3.47,0,.78.24,1,1,.89a111.58,111.58,0,0,1,11.41-.81c2.6,0,5.21-.15,7.79.05a119.6,119.6,0,0,1,13.32,1.64,78.93,78.93,0,0,1,13.73,4,53.36,53.36,0,0,1,5.06,2.29c.59.31.6.58.31,1.1-1,1.79-1.07,1.83-3.65.91a78,78,0,0,0-10.51-2.83,105.77,105.77,0,0,0-17.12-2c-4.51-.19-9,.11-13.47.34-3.59.19-7.16.85-10.73,1.32a18.12,18.12,0,0,0-2.44.47c-.94.25-1.12-.18-1.08-1q.26-4.3.47-8.61c.42-8.58.81-17.15,1.27-25.73.07-1.31.2-2.62.21-3.94,0-.55.19-.78.77-.77,2.64,0,5.28,0,7.92.06.46,0,.65.17.61.63s0,.8,0,1.19c-.15,2.23-.15,2.27-2.34,2.2-.89,0-1.11.35-1.14,1.11-.09,2.12-.21,4.23-.31,6.34q-.42,8.81-.85,17.59Z" transform="translate(-230.76 -386.36)"/><path class="cls-1" d="M328.8,443.81a74,74,0,0,1,11.44.69,108.58,108.58,0,0,1,16.17,3.11c.61.18,1,.19,1-.71,0-1.39.16-2.79.2-4.18,0-.67.22-.94.93-.82,1.41.25,2.83.45,4.24.66a.85.85,0,0,1,.84.94q.24,5.92.53,11.85c.06,1-.38.93-1.07.69-3.25-1.13-6.54-2.12-9.84-3.07q-5.31-1.53-10.71-2.65a128.33,128.33,0,0,0-12.8-1.94,96.83,96.83,0,0,0-33.38,2.31c-.5.13-1.31.54-1.49,0-.26-.75.77-.69,1.17-.85a84.77,84.77,0,0,1,13.82-4.2A89.39,89.39,0,0,1,328.8,443.81Z" transform="translate(-230.76 -386.36)"/><path class="cls-2" d="M230.78,456.43c0-1.77-.05-3.48,0-5.19.09-2.47.29-4.94.37-7.42,0-.89.3-1.26,1.24-1.33a34.73,34.73,0,0,0,3.77-.59c.7-.13,1,.05,1.05.82.14,1.4.2,2.79.22,4.19,0,.63.18.89.83.7a102.06,102.06,0,0,1,10.79-2.32A103.21,103.21,0,0,1,274.43,444a82,82,0,0,1,12.33,2c.36.08,1.41,0,1.11.79s-.29,1.85-1.58,1.74-2.57,0-3.82-.27a44.42,44.42,0,0,0-6.91-.32,80.69,80.69,0,0,0-11.1.55,138.12,138.12,0,0,0-15.37,2.6c-4.91,1.14-9.74,2.53-14.54,4C233.27,455.5,232,456,230.78,456.43Z" transform="translate(-230.76 -386.36)"/><path class="cls-3" d="M300.93,417.25c4.12,0,8.24,0,12.36,0,.75,0,1,.19,1,.93a9.38,9.38,0,0,0,0,1.91c.17,1.13-.43,1.36-1.36,1.36-7.84,0-15.68,0-23.51,0-1.89,0-1.89-.05-1.89-1.93,0-2.23,0-2.23,2.28-2.23h11.15Z" transform="translate(-230.76 -386.36)"/><path class="cls-4" d="M321.62,421.41c-1.36,0-2.72,0-4.08,0-1.09,0-1.12-.74-.91-1.36.32-1-1.07-2.72.91-2.88,2.74-.22,5.51-.05,8.27-.06.74,0,1.11.33,1.1,1.07v.24c0,3.33.33,3-2.9,3Z" transform="translate(-230.76 -386.36)"/><path class="cls-4" d="M281.35,402c-1.08,0-2.16,0-3.24,0-.74,0-1.11-.32-1.1-1.07,0-3.59-.43-3.22,3-3.22,1.56,0,3.12,0,4.68,0,.79,0,1.18.34,1.18,1.14,0,3.42.44,3.18-3,3.16-.51,0-1,0-1.55,0Z" transform="translate(-230.76 -386.36)"/><path class="cls-4" d="M281.4,414.93c-1.08,0-2.16,0-3.24,0-.8,0-1.17-.34-1.16-1.14,0-3.51-.4-3.16,3-3.15,1.56,0,3.12,0,4.68,0,.85,0,1.24.33,1.23,1.2,0,3.34.4,3.11-2.93,3.09Z" transform="translate(-230.76 -386.36)"/><path class="cls-4" d="M281.48,408.45c-1.07,0-2.15,0-3.23,0-.85,0-1.26-.3-1.25-1.18,0-3.49-.39-3.11,3-3.11,1.51,0,3,0,4.55,0,.89,0,1.33.29,1.32,1.24,0,3.31.39,3.07-3,3.05Z" transform="translate(-230.76 -386.36)"/><path class="cls-4" d="M274.37,421.41c-.92,0-1.84,0-2.75,0s-1.1-.34-1.09-1.07c0-3.61-.44-3.21,3-3.21h3.23a1.93,1.93,0,0,1,.48,0c1.86.52.57,2,.88,3,.19.62.08,1.31-.9,1.28S275.33,421.41,274.37,421.41Z" transform="translate(-230.76 -386.36)"/><path class="cls-4" d="M299.83,404.17h1.91a1.71,1.71,0,0,1,.6,0c1.59.7.56,2.09.79,3.15.16.7-.27,1.12-1,1.12-1.56,0-3.13.12-4.67,0-1.7-.16-.84-1.59-1-2.47-.11-.73-.29-1.71,1-1.77C298.23,404.14,299,404.17,299.83,404.17Z" transform="translate(-230.76 -386.36)"/><path class="cls-4" d="M308.4,408.45h-1.92a1.66,1.66,0,0,1-.59,0c-1.58-.71-.56-2.1-.79-3.16-.15-.7.29-1.11,1-1.11a40.39,40.39,0,0,1,4.67,0c1.74.19.8,1.68,1,2.59.13.72.19,1.61-1,1.65C310,408.47,309.2,408.45,308.4,408.45Z" transform="translate(-230.76 -386.36)"/><path class="cls-4" d="M291.21,408.45h-2.27c-.81,0-1.15-.37-1.14-1.16,0-3.48-.39-3.12,3-3.12h2.27a1.71,1.71,0,0,1,.6,0c1.62.67.58,2.08.82,3.13.15.69-.25,1.14-1,1.14Z" transform="translate(-230.76 -386.36)"/><path class="cls-4" d="M317.11,408.45c-.64,0-1.28-.05-1.91,0-1.18.1-1.52-.43-1.5-1.55,0-2.93-.21-2.77,2.69-2.74H319a1.71,1.71,0,0,1,.6,0c1.59.7.55,2.09.79,3.15.16.69-.26,1.12-1,1.12Z" transform="translate(-230.76 -386.36)"/><path class="cls-4" d="M291.16,410.65h.48c3.39,0,2.85-.29,2.87,3.37,0,.62-.4.91-1,.91a38.25,38.25,0,0,1-4.67,0c-1.89-.23-.77-1.83-1-2.8-.18-.75,0-1.46,1.05-1.45Z" transform="translate(-230.76 -386.36)"/><path class="cls-4" d="M299.64,414.93h-.24c-3.39,0-2.93.3-3-3.17,0-.73.31-1.12,1.06-1.12a38.24,38.24,0,0,1,4.67.05c1.81.22.75,1.77,1,2.71.16.71.09,1.5-1,1.53Z" transform="translate(-230.76 -386.36)"/><path class="cls-4" d="M308.41,414.93h-.36c-3.45,0-2.94.31-3-3.27,0-.69.37-1,1.05-1,1.56,0,3.11,0,4.67,0,1.16,0,1.09.93,1,1.65-.16.91.77,2.33-1,2.61A14.78,14.78,0,0,1,308.41,414.93Z" transform="translate(-230.76 -386.36)"/><path class="cls-4" d="M308.41,414.93h-.36c-3.45,0-2.94.31-3-3.27,0-.69.37-1,1.05-1,1.56,0,3.11,0,4.67,0,1.16,0,1.09.93,1,1.65-.16.91.77,2.33-1,2.61A14.78,14.78,0,0,1,308.41,414.93Z" transform="translate(-230.76 -386.36)"/><path class="cls-4" d="M317.14,414.93h-2a1.5,1.5,0,0,1-.6,0c-1.54-.72-.55-2.1-.77-3.17-.15-.71.32-1.1,1.06-1.09h4.55a.65.65,0,0,1,.24,0c1.63.68.57,2.08.82,3.13.16.67-.21,1.15-1,1.15Z" transform="translate(-230.76 -386.36)"/><path class="cls-4" d="M317.17,397.68h.36c3.38,0,2.87-.33,2.9,3.35a.87.87,0,0,1-1,.94h-4.67a.64.64,0,0,1-.24,0c-1.58-.71-.56-2.1-.79-3.16-.15-.7.29-1.12,1-1.12Z" transform="translate(-230.76 -386.36)"/><path class="cls-4" d="M308.45,397.68h.36c3.44,0,2.95-.32,3,3.27a.9.9,0,0,1-1,1h-4.68a.58.58,0,0,1-.23,0c-1.52-.75-.54-2.12-.76-3.19-.14-.71.34-1.09,1.07-1.09Z" transform="translate(-230.76 -386.36)"/><path class="cls-4" d="M299.77,402H298c-.2,0-.4,0-.6,0-1.14-.12-1-1-.9-1.72.14-.89-.72-2.33.91-2.53a17.79,17.79,0,0,1,4.78,0c1.87.29.74,1.93,1,2.94.19.78-.17,1.32-1.09,1.3C301.29,402,300.53,402,299.77,402Z" transform="translate(-230.76 -386.36)"/><path class="cls-4" d="M291.18,402h-.6c-2.84,0-3.36-.65-2.77-3.47a.92.92,0,0,1,1-.82h4.68a.58.58,0,0,1,.23,0c1.56.73.56,2.11.79,3.17.15.71-.3,1.11-1,1.11Z" transform="translate(-230.76 -386.36)"/><path class="cls-4" d="M282.69,421.41c-2.64,0-2.31.27-2.32-2.39,0-1.89,0-1.89,1.86-1.89h1.55c1.39,0,1.61.23,1.62,1.67,0,.16,0,.32,0,.48,0,2.09,0,2.13-2.12,2.13Z" transform="translate(-230.76 -386.36)"/><path class="cls-4" d="M324.62,414.93h-1a1.53,1.53,0,0,1-.48,0c-1.6-.7-.57-2.09-.8-3.15-.16-.7.28-1.12,1-1.12s1.67,0,2.51,0c1.08,0,1.12.83,1,1.53-.21.94.84,2.37-.95,2.74A7.16,7.16,0,0,1,324.62,414.93Z" transform="translate(-230.76 -386.36)"/><path class="cls-4" d="M324.67,404.17h1a1.28,1.28,0,0,1,.48,0c1.56.71.54,2.1.78,3.16.15.69-.27,1.12-1,1.11h-2.39c-.81,0-1.16-.4-1.12-1.19,0-.24,0-.48,0-.72C322.35,404.17,322.35,404.17,324.67,404.17Z" transform="translate(-230.76 -386.36)"/><path class="cls-3" d="M272.79,414.8c-2.2,0-2.41-.24-2.05-2.51.08-.54-.34-1.37.5-1.53a5.46,5.46,0,0,1,3.5.18.68.68,0,0,1,.35.71c0,.27,0,.55,0,.83C275.07,414.76,275.45,414.9,272.79,414.8Z" transform="translate(-230.76 -386.36)"/><path class="cls-3" d="M272.82,408.32c-2.23,0-2.44-.25-2.09-2.49.09-.55-.3-1.42.48-1.56a5.67,5.67,0,0,1,3.5.17.67.67,0,0,1,.38.69c0,.32,0,.64,0,1C275.09,408.36,275.37,408.38,272.82,408.32Z" transform="translate(-230.76 -386.36)"/><path class="cls-3" d="M272.66,401.84a9.53,9.53,0,0,0-1.07,0c-.64.08-.88-.2-.85-.81s-.05-1.38,0-2.08c0-1,.39-1.3,1.35-1.3,3.13,0,3.11,0,3.05,3.06,0,.8-.29,1.19-1.12,1.13C273.54,401.81,273.1,401.84,272.66,401.84Z" transform="translate(-230.76 -386.36)"/><path class="cls-3" d="M324.62,401.84c-2.56.05-2.27,0-2.27-2.25,0-1.73.18-1.91,1.9-1.91,2.81,0,2.44-.18,2.44,2.43C326.69,402.27,326.87,401.8,324.62,401.84Z" transform="translate(-230.76 -386.36)"/></svg>